<svg width="24" height="24" viewBox="0 0 24 24" fill="none" xmlns="http://www.w3.org/2000/svg">
<path fill-rule="evenodd" clip-rule="evenodd" d="M7.538 3H10.9545C10.9575 3.568 10.803 4.35 11.2015 4.8215C12.0755 5.8565 13.5295 4.564 14.734 4.564C16.899 4.564 18.237 6.2405 19.1985 7.951C20.296 9.9025 20.2495 12.343 19.081 14.253C18.281 15.561 17.2925 16.637 15.824 17.2065C13.6475 18.0505 11.2175 17.7325 9.1885 16.7335C8.414 16.3525 7.4135 16.8925 7.4135 17.777V21H4V17.911C4.00028 17.3135 4.11696 16.7218 4.3435 16.169C5.415 13.549 7.1615 13.762 9.599 13.0665C11.188 12.6135 12.1335 10.685 10.6225 9.4665C9.7525 8.765 8.8455 8.12 8.2635 7.142C7.4915 5.8455 7.538 4.4485 7.538 3Z" fill="#DFE4EA"/>
</svg>
